<?xml version="1.0" standalone="no"?>
<!DOCTYPE svg PUBLIC "-//W3C//DTD SVG 20010904//EN"
 "http://www.w3.org/TR/2001/REC-SVG-20010904/DTD/svg10.dtd">
<svg version="1.0" xmlns="http://www.w3.org/2000/svg"
 width="120.000000pt" height="120.000000pt" viewBox="0 0 120.000000 120.000000"
 preserveAspectRatio="xMidYMid meet">
<metadata>
Created by potrace 1.10, written by Peter Selinger 2001-2011
</metadata>
<g transform="translate(0.000000,120.000000) scale(0.050000,-0.050000)"
fill="#FFFFFF" stroke="none">
<path d="M940 2369 c-857 -184 -1227 -1238 -673 -1920 606 -747 1808 -510
2081 410 258 871 -516 1701 -1408 1510z m518 -80 c845 -199 1147 -1264 532
-1879 -528 -528 -1430 -395 -1775 262 -448 856 306 1838 1243 1617z"/>
<path d="M1320 1677 c-125 -84 -160 -188 -160 -472 0 -179 -8 -263 -30 -304
-132 -257 -522 -140 -484 144 20 146 164 246 309 214 58 -13 65 -10 65 31 0
95 -218 79 -342 -25 -245 -206 -82 -605 238 -581 247 17 323 138 324 512 0
177 8 262 30 303 132 257 522 140 484 -144 -20 -147 -187 -262 -315 -218 -54
19 -59 17 -59 -26 0 -151 343 -42 428 137 138 290 -222 607 -488 429z"/>
</g>
</svg>
